<svg width="24" height="24" viewBox="0 0 24 24" fill="none" xmlns="http://www.w3.org/2000/svg">
<path d="M8.68402 13.342C8.88602 12.938 9.00002 12.482 9.00002 12C9.00002 11.518 8.88602 11.062 8.68402 10.658M8.68402 13.342C8.38172 13.9464 7.88422 14.431 7.27211 14.7174C6.66001 15.0037 5.96915 15.075 5.31146 14.9197C4.65378 14.7644 4.06779 14.3916 3.64843 13.8617C3.22907 13.3317 3.00092 12.6758 3.00092 12C3.00092 11.3242 3.22907 10.6682 3.64843 10.1383C4.06779 9.60841 4.65378 9.2356 5.31146 9.08029C5.96915 8.92499 6.66001 8.99628 7.27211 9.28263C7.88422 9.56898 8.38172 10.0536 8.68402 10.658M8.68402 13.342L15.316 16.658M8.68402 10.658L15.316 7.34199M15.316 16.658C14.9601 17.3698 14.9015 18.1939 15.1532 18.9489C15.4049 19.704 15.9462 20.3281 16.658 20.684C17.3699 21.0399 18.1939 21.0985 18.949 20.8468C19.704 20.5951 20.3281 20.0538 20.684 19.342C21.0399 18.6302 21.0985 17.8061 20.8468 17.0511C20.5952 16.296 20.0539 15.6719 19.342 15.316C18.9895 15.1398 18.6058 15.0347 18.2127 15.0067C17.8197 14.9788 17.4249 15.0286 17.0511 15.1532C16.2961 15.4049 15.6719 15.9462 15.316 16.658ZM15.316 7.34199C15.4923 7.69439 15.7362 8.00863 16.0338 8.26677C16.3315 8.5249 16.6771 8.72188 17.0509 8.84645C17.4247 8.97102 17.8194 9.02074 18.2124 8.99278C18.6055 8.96482 18.9891 8.85973 19.3415 8.68349C19.6939 8.50726 20.0082 8.26334 20.2663 7.96566C20.5244 7.66798 20.7214 7.32238 20.846 6.94858C20.9705 6.57477 21.0203 6.1801 20.9923 5.78708C20.9643 5.39406 20.8593 5.01039 20.683 4.65799C20.3271 3.94628 19.703 3.40511 18.9481 3.15353C18.1932 2.90195 17.3692 2.96057 16.6575 3.31649C15.9458 3.67241 15.4046 4.29648 15.1531 5.05141C14.9015 5.80634 14.9601 6.63028 15.316 7.34199Z" stroke="black" stroke-width="2" stroke-linecap="round" stroke-linejoin="round"/>
</svg>
